<svg width="234" height="30" viewBox="0 0 234 30" fill="none" xmlns="http://www.w3.org/2000/svg">
<path d="M7.9581 29.3373C12.5562 29.0932 14.7159 25.176 14.9946 17.8625C19.4533 16.4674 23.644 19.9302 22.3999 22.4215C19.9118 26.1584 17.4237 23.6672 17.4237 23.6672L16.0396 28.0817C23.7727 30.8719 27.2212 26.7215 27.7786 21.9781C28.3359 17.13 23.318 13.2353 14.9946 13.8864V11.3054L18.7763 11.2108L20.0206 5.37618H14.9946L15.8408 0.882353H8.8034L9.35146 5.37618L3.19751 5.30643L3.84749 11.2108H9.35146V13.8864C3.52535 13.8864 -0.785202 17.3044 0.120479 23.2686C0.956493 28.849 4.89272 29.4768 7.9581 29.3373ZM28.7291 8.30593C28.7291 8.30593 28.0274 4.53911 24.9969 0.493272L20.0206 2.49128C20.0206 2.49128 23.0462 4.92277 24.9969 8.30593H28.7291ZM9.35146 17.8625C9.35146 23.1095 8.21713 23.5476 6.09227 21.9781C3.5342 19.6026 9.35146 15.9223 9.35146 17.8625Z" fill="#E7380D"/>
<path d="M47.1114 9.17788L47.8429 11.0613L39.9255 13.702L41.0609 18.2461L48.9576 15.3513L49.7694 19.9302L56.7952 18.2461L54.8543 13.702L58.5865 12.4564L57.5964 8.30593L53.4163 9.56153L52.8938 7.74788L56.7952 6.5633V1.91547L52.0578 3.28351L51.1221 0L44.4908 1.91547L45.6135 4.64375L37.4373 7.47384L38.7164 11.9332L47.1114 9.17788ZM53.6102 23.6672C45.7377 26.0737 43.6577 21.1759 43.6577 21.1759L39.9255 26.1584C45.6135 29.8954 48.6339 29.8954 56.0983 28.6497L53.6102 23.6672Z" fill="#E7380D"/>
<path d="M84.7119 1.91547C77.2475 9.96512 71.2513 16.2581 71.2513 16.2581L85.1849 30L90.2358 23.6672L80.3081 16.1186C79.7356 16.2581 84.7119 12.4564 85.9559 11.2108C85.9559 11.2108 87.2401 15.4559 87.5187 17.3742L91.5246 16.4325C91.5246 16.4325 91.246 12.7005 90.2358 9.87544L88.4441 9.56153C90.4993 7.43398 91.7336 6.31789 91.7336 6.31789L84.7119 1.91547ZM91.2808 9.59641C91.2808 9.59641 92.3258 12.8749 92.4303 16.0488L96.5059 15.4908C96.5059 15.4908 95.9085 11.2108 95.6037 8.30593L91.2808 9.59641Z" fill="#E7380D"/>
<path d="M116.187 29.6512C122.666 29.5117 127.752 26.3029 128.658 21.1759C129.981 13.991 125.303 8.32586 118.302 9.96512L121.181 2.13253H109.011V8.20129H113.609L112.081 14.9477C121.347 12.0528 122.178 15.7 121.656 19.7808C121.168 23.6871 116.884 24.1754 116.884 24.1754C116.884 24.1754 117.861 20.5701 115.814 18.6846C114.461 17.439 109.777 16.9208 108.349 21.1759C106.747 25.989 109.708 29.7907 116.187 29.6512ZM110.837 22.4215C112.703 18.6846 115.814 22.4215 114.57 23.6672C113.325 24.9128 109.593 24.9128 110.837 22.4215Z" fill="#E7380D"/>
<path d="M138.207 7.01545L139.451 13.6423L143.532 13.6771V17.8434H148.826V13.6423L153.136 13.702C152.615 21.6437 150.046 22.9297 144.124 24.1754V29.6512C145.671 29.8954 156.868 28.6497 159.356 13.702L164.332 13.6423L165.178 6.7713L159.356 6.98057L160.107 1.24564H152.63L153.136 7.01545L148.826 6.98057L149.111 1.24564H142.954L143.532 6.98057L138.207 7.01545Z" fill="#E7380D"/>
<path d="M176.773 18.5252C176.773 18.5252 186.725 18.6846 194.633 18.5252L195.434 12.4564C195.434 12.4564 185.481 12.4564 175.529 12.4564L176.773 18.5252Z" fill="#E7380D"/>
<path d="M225.113 9.82053C225.699 9.82053 230.756 6.52715 230.756 6.52715L226.536 1.24564C221.559 4.98256 217.827 4.98256 209.119 4.98256L209.809 9.82053C215.757 9.82053 217.728 9.82053 217.728 9.82053V12.4564L206.631 12.4564L207.875 18.3159L217.728 18.2461C217.937 20.6527 216.369 23.129 212.085 23.129L213.722 29.6512C225.356 27.9422 225.113 18.2461 225.113 18.2461H232.756L234 12.4564L225.113 12.4564V9.82053Z" fill="#E7380D"/>
</svg>
